<svg width="733" height="431" viewBox="0 0 733 431" fill="none" xmlns="http://www.w3.org/2000/svg">
<rect width="733" height="431" fill="black" fill-opacity="0.25"/>
<rect width="733" height="431" fill="white"/>
<g filter="url(#filter0_d_0_1)">
<ellipse cx="146.389" cy="304.466" rx="104.659" ry="101.8" transform="rotate(-5 146.389 304.466)" fill="black"/>
<path d="M249.654 295.431C254.503 350.864 212.232 399.89 155.174 404.882C98.1161 409.874 47.9735 368.933 43.1238 313.501C38.274 258.068 80.5456 209.042 137.603 204.05C194.661 199.058 244.804 239.999 249.654 295.431Z" stroke="black" stroke-width="2"/>
</g>
<g filter="url(#filter1_d_0_1)">
<ellipse cx="146.907" cy="304.18" rx="98" ry="95" transform="rotate(-5 146.907 304.18)" fill="white"/>
<path d="M155.274 399.814C209.713 395.052 250.154 348.398 245.53 295.551C240.907 242.705 192.979 203.782 138.54 208.545C84.1012 213.308 43.6601 259.962 48.2836 312.808C52.9071 365.655 100.835 404.577 155.274 399.814Z" stroke="#9C9C9C" stroke-width="2"/>
</g>
<line x1="141.125" y1="209.498" x2="157.685" y2="398.775" stroke="black"/>
<line x1="95.3485" y1="226.301" x2="204.328" y2="381.94" stroke="black"/>
<line x1="62.1678" y1="262.149" x2="236.077" y2="345.308" stroke="black"/>
<line x1="51.2362" y1="312.223" x2="246.49" y2="295.14" stroke="black"/>
<line x1="71.7968" y1="358.173" x2="227.436" y2="249.193" stroke="black"/>
<line x1="109.529" y1="389.459" x2="189.826" y2="217.26" stroke="black"/>
<g filter="url(#filter2_d_0_1)">
<ellipse cx="490.195" cy="304.031" rx="103.428" ry="100.508" transform="rotate(-5 490.195 304.031)" fill="black"/>
<path d="M592.233 295.104C597.02 349.825 555.248 398.228 498.867 403.161C442.486 408.093 392.944 367.679 388.157 312.958C383.369 258.237 425.141 209.834 481.522 204.902C537.903 199.969 587.445 240.383 592.233 295.104Z" stroke="black" stroke-width="2"/>
</g>
<g filter="url(#filter3_d_0_1)">
<ellipse cx="489.994" cy="303.176" rx="98" ry="95" transform="rotate(-5 489.994 303.176)" fill="white"/>
<path d="M586.625 294.722C591.147 346.41 551.584 392.147 498.187 396.818C444.789 401.49 397.885 363.318 393.363 311.63C388.841 259.942 428.404 214.205 481.801 209.534C535.199 204.862 582.103 243.034 586.625 294.722Z" stroke="white" stroke-width="2"/>
</g>
<line x1="482.125" y1="207.498" x2="498.685" y2="396.775" stroke="black"/>
<line x1="436.349" y1="224.301" x2="545.328" y2="379.94" stroke="black"/>
<line x1="403.168" y1="260.149" x2="577.077" y2="343.308" stroke="black"/>
<line x1="392.236" y1="310.223" x2="587.49" y2="293.14" stroke="black"/>
<line x1="412.797" y1="356.173" x2="568.436" y2="247.193" stroke="black"/>
<line x1="450.529" y1="387.459" x2="530.826" y2="215.26" stroke="black"/>
<line x1="149.282" y1="304.184" x2="241.282" y2="217.184" stroke="black" stroke-width="5"/>
<line x1="226.392" y1="150.018" x2="264.392" y2="320.018" stroke="black" stroke-width="9"/>
<line x1="147.313" y1="303.52" x2="266.313" y2="318.52" stroke="black" stroke-width="5"/>
<line x1="237.386" y1="212.063" x2="438.386" y2="170.063" stroke="black" stroke-width="6"/>
<line x1="263.308" y1="316.787" x2="443.308" y2="201.787" stroke="black" stroke-width="10"/>
<line x1="488.745" y1="303.08" x2="442.745" y2="207.08" stroke="black" stroke-width="5"/>
<line x1="439.495" y1="150.809" x2="442.495" y2="205.809" stroke="black" stroke-width="7"/>
<line x1="437" y1="152.5" x2="490" y2="152.5" stroke="black" stroke-width="3"/>
<path d="M489 153L467 193" stroke="black" stroke-width="3"/>
<rect x="196.5" y="139.5" width="56" height="11" rx="4.5" fill="black" stroke="black"/>
<defs>
<filter id="filter0_d_0_1" x="37.7447" y="202.638" width="217.288" height="211.656" filterUnits="userSpaceOnUse" color-interpolation-filters="sRGB">
<feFlood flood-opacity="0" result="BackgroundImageFix"/>
<feColorMatrix in="SourceAlpha" type="matrix" values="0 0 0 0 0 0 0 0 0 0 0 0 0 0 0 0 0 0 127 0" result="hardAlpha"/>
<feOffset dy="4"/>
<feGaussianBlur stdDeviation="2"/>
<feComposite in2="hardAlpha" operator="out"/>
<feColorMatrix type="matrix" values="0 0 0 0 0 0 0 0 0 0 0 0 0 0 0 0 0 0 0.25 0"/>
<feBlend mode="normal" in2="BackgroundImageFix" result="effect1_dropShadow_0_1"/>
<feBlend mode="normal" in="SourceGraphic" in2="effect1_dropShadow_0_1" result="shape"/>
</filter>
<filter id="filter1_d_0_1" x="42.9233" y="207.151" width="207.967" height="202.058" filterUnits="userSpaceOnUse" color-interpolation-filters="sRGB">
<feFlood flood-opacity="0" result="BackgroundImageFix"/>
<feColorMatrix in="SourceAlpha" type="matrix" values="0 0 0 0 0 0 0 0 0 0 0 0 0 0 0 0 0 0 127 0" result="hardAlpha"/>
<feOffset dy="4"/>
<feGaussianBlur stdDeviation="2"/>
<feComposite in2="hardAlpha" operator="out"/>
<feColorMatrix type="matrix" values="0 0 0 0 0 0 0 0 0 0 0 0 0 0 0 0 0 0 0.25 0"/>
<feBlend mode="normal" in2="BackgroundImageFix" result="effect1_dropShadow_0_1"/>
<feBlend mode="normal" in="SourceGraphic" in2="effect1_dropShadow_0_1" result="shape"/>
</filter>
<filter id="filter2_d_0_1" x="382.783" y="203.494" width="214.824" height="209.074" filterUnits="userSpaceOnUse" color-interpolation-filters="sRGB">
<feFlood flood-opacity="0" result="BackgroundImageFix"/>
<feColorMatrix in="SourceAlpha" type="matrix" values="0 0 0 0 0 0 0 0 0 0 0 0 0 0 0 0 0 0 127 0" result="hardAlpha"/>
<feOffset dy="4"/>
<feGaussianBlur stdDeviation="2"/>
<feComposite in2="hardAlpha" operator="out"/>
<feColorMatrix type="matrix" values="0 0 0 0 0 0 0 0 0 0 0 0 0 0 0 0 0 0 0.25 0"/>
<feBlend mode="normal" in2="BackgroundImageFix" result="effect1_dropShadow_0_1"/>
<feBlend mode="normal" in="SourceGraphic" in2="effect1_dropShadow_0_1" result="shape"/>
</filter>
<filter id="filter3_d_0_1" x="388.011" y="208.147" width="203.966" height="198.058" filterUnits="userSpaceOnUse" color-interpolation-filters="sRGB">
<feFlood flood-opacity="0" result="BackgroundImageFix"/>
<feColorMatrix in="SourceAlpha" type="matrix" values="0 0 0 0 0 0 0 0 0 0 0 0 0 0 0 0 0 0 127 0" result="hardAlpha"/>
<feOffset dy="4"/>
<feGaussianBlur stdDeviation="2"/>
<feComposite in2="hardAlpha" operator="out"/>
<feColorMatrix type="matrix" values="0 0 0 0 0 0 0 0 0 0 0 0 0 0 0 0 0 0 0.25 0"/>
<feBlend mode="normal" in2="BackgroundImageFix" result="effect1_dropShadow_0_1"/>
<feBlend mode="normal" in="SourceGraphic" in2="effect1_dropShadow_0_1" result="shape"/>
</filter>
</defs>
</svg>
